 <svg xmlns="http://www.w3.org/2000/svg" viewBox="0 0 1440 320"><path fill="#0099ff" fill-opacity="1" d="M0,256L20,213.3C40,171,80,85,120,80C160,75,200,149,240,186.7C280,224,320,224,360,229.3C400,235,440,245,480,240C520,235,560,213,600,176C640,139,680,85,720,96C760,107,800,181,840,213.3C880,245,920,235,960,240C1000,245,1040,267,1080,266.7C1120,267,1160,245,1200,245.3C1240,245,1280,267,1320,261.3C1360,256,1400,224,1420,208L1440,192L1440,320L1420,320C1400,320,1360,320,1320,320C1280,320,1240,320,1200,320C1160,320,1120,320,1080,320C1040,320,1000,320,960,320C920,320,880,320,840,320C800,320,760,320,720,320C680,320,640,320,600,320C560,320,520,320,480,320C440,320,400,320,360,320C320,320,280,320,240,320C200,320,160,320,120,320C80,320,40,320,20,320L0,320Z"></path></svg>